<svg class="svg-canvas" viewBox="0 0 800 600" width="1600" height="1200" preserveAspectRatio="none" version="1.1" xmlns="http://www.w3.org/2000/svg" xmlns:xlink="http://www.w3.org/1999/xlink" style="background:#ffffff">
      <!--滤镜-->
      <defs></defs>
    
      <!-- 背景 -->
      
    
      <!--元素-->
      
              <g id="shape_m6bj3p8Csc" ref="shape_m6bj3p8Csc" key="shape_m6bj3p8Csc" mask="">
                <g transform="translate(285.39317937529177,120) rotate(0,114.60682062470134,114.60803059273422) scale(1,1)" style="opacity: 1;mix-blend-mode: undefined;" filter="">
                  <!--普通元素-->
                  <svg version="1.1" id="图层_1" xmlns="http://www.w3.org/2000/svg" xmlns:xlink="http://www.w3.org/1999/xlink" x="0px" y="0px" width="229.21364124940268" height="229.21606118546845" viewBox="7.495107650756836 7.500119209289551 184.99781799316406 184.99977111816406" enable-background="new 0 0 200.002 200" xml:space="preserve" class="style-removed" preserveAspectRatio="none" data-parent="shape_m6bj3p8Csc">
<radialGradient id="SVGID_1_" cx="108.8564" cy="-1.4609" r="122.1297" gradientUnits="userSpaceOnUse">
	<stop offset="0" stop-color="#1bb6e2"></stop>
	<stop offset="0.5113" stop-color="#1bb6e2"></stop>
	<stop offset="0.6926" stop-color="#1bb6e2"></stop>
	<stop offset="1" stop-color="#1bb6e2"></stop>
</radialGradient>
<path fill="url(#SVGID_1_)" d="M161.656,38.338C143.883,20.843,122.221,7.237,99.994,7.504C81.479,7.281,63.356,16.69,47.546,29.951
	c5.108,4.394,15.347,9.061,35.584,7.891c50.717-2.929,71.987,17.52,68.649,42.574c-3.197,22.087-28.149,41.225-64.649,48.646
	c0,0,0.252-4.801,0.659-12.58c0.409-7.778,4.373-8.57,8.181-9.547c0.21-0.054,0.416-0.111,0.625-0.166
	c0.406,0.169,0.811,0.347,1.209,0.541c3.576,1.744,6.551,4.373,8.729,7.685c-0.322-3.95,0.406-7.852,2.15-11.427
	c0.182-0.374,0.38-0.737,0.582-1.097c12.016-5.189,20.668-12.796,22.937-23.074c6.523-29.593-42.783-27.551-42.783-27.551
	s33.113,3.457,35.894,18.366c-13.671-7.902-33.504-7.342-43.302-7.814c-20.353-0.979-39.57-5.832-40.52-27.085
	c-1.064,0.995-2.118,2.003-3.157,3.025C20.836,56.111,7.231,77.774,7.499,100.001c-0.268,22.225,13.337,43.89,30.834,61.661
	c17.771,17.497,39.436,31.101,61.661,30.834c18.335,0.221,36.286-9.003,51.986-22.061c-5.256-4.274-15.478-8.64-35.121-7.505
	c-50.718,2.93-71.988-17.519-68.649-42.573c3.197-22.087,28.15-41.225,64.649-48.646c0,0-0.252,4.801-0.661,12.579
	c-0.329,6.293-2.986,8.014-6.006,8.957c-0.421-0.174-0.839-0.358-1.252-0.56c-3.576-1.744-6.551-4.372-8.728-7.683
	c0.322,3.948-0.405,7.851-2.15,11.425c-0.109,0.225-0.231,0.438-0.348,0.657c-13.56,5.188-23.475,13.177-25.926,24.289
	c-6.524,29.592,42.782,27.551,42.782,27.551s-33.113-3.457-35.893-18.367c13.67,7.901,33.502,7.344,43.301,7.814
	c20.114,0.969,39.136,5.708,40.491,26.337c1.076-1.002,2.139-2.019,3.186-3.05c17.496-17.771,31.102-39.437,30.834-61.661
	C192.758,77.774,179.152,56.111,161.656,38.338z" stroke-width="0"></path>
</svg>
                </g>
              </g>
              <g id="shape_34CtMVKDxj" ref="shape_34CtMVKDxj" key="shape_34CtMVKDxj" mask="">
                <g transform="translate(42.120489483747605,114.5487877629063) rotate(0,357.87951051625237,281.4741567877629) scale(1,1)" style="opacity: 1;mix-blend-mode: undefined;" filter="">
                  <!--普通元素-->
                  <svg xmlns="http://www.w3.org/2000/svg" version="1.1" xmlns:xlink="http://www.w3.org/1999/xlink" width="715.7590210325047" height="562.9483135755258" viewBox="0 0 519.9194 408.9194" data-ligature="true" data-parent="shape_34CtMVKDxj"><g data-role="text" data-width="178.69890150000003" data-height="68" transform="translate(170.61024924999998, 170.4597)"><path d="M1.59 0Q1.31 0 1.11-0.20Q0.91-0.40 0.91-0.68L0.91-0.68L0.91-7.61Q0.91-7.90 1.14-8.47L1.14-8.47L12.61-31.36Q12.67-31.54 12.61-31.62Q12.56-31.71 12.39-31.71L12.39-31.71L1.59-31.71Q1.31-31.71 1.11-31.90Q0.91-32.10 0.91-32.39L0.91-32.39L0.91-39.09Q0.91-39.38 1.11-39.58Q1.31-39.77 1.59-39.77L1.59-39.77L22.05-39.77Q22.33-39.77 22.53-39.58Q22.73-39.38 22.73-39.09L22.73-39.09L22.73-32.16Q22.73-31.88 22.50-31.31L22.50-31.31L10.91-8.41Q10.85-8.24 10.91-8.15Q10.97-8.07 11.14-8.07L11.14-8.07L22.05-8.07Q22.33-8.07 22.53-7.87Q22.73-7.67 22.73-7.39L22.73-7.39L22.73-0.68Q22.73-0.40 22.53-0.20Q22.33 0 22.05 0L22.05 0L1.59 0Z" transform="translate(0 56) " fill="#000000" stroke="#000000" stroke-width="0.095" data-glyph-w="23.80758" data-glyph-h="68.184" data-glyph-ascender="56.82" data-glyph-descender="-11.364" data-kerning="0"></path><path d="M1.88-12.44Q1.59-12.44 1.39-12.64Q1.19-12.84 1.19-13.13L1.19-13.13L1.19-19.83Q1.19-20.11 1.39-20.31Q1.59-20.51 1.88-20.51L1.88-20.51L17.33-20.51Q17.61-20.51 17.81-20.31Q18.01-20.11 18.01-19.83L18.01-19.83L18.01-13.13Q18.01-12.84 17.81-12.64Q17.61-12.44 17.33-12.44L17.33-12.44L1.88-12.44Z" transform="translate(23.80758 56) " fill="#000000" stroke="#000000" stroke-width="0.095" data-glyph-w="19.14834" data-glyph-h="68.184" data-glyph-ascender="56.82" data-glyph-descender="-11.364" data-kerning="0"></path><path d="M2.67 0Q2.39 0 2.19-0.20Q1.99-0.40 1.99-0.68L1.99-0.68L1.99-39.09Q1.99-39.38 2.19-39.58Q2.39-39.77 2.67-39.77L2.67-39.77L13.52-39.77Q18.98-39.77 22.27-36.71Q25.57-33.64 25.57-28.58L25.57-28.58L25.57-11.19Q25.57-6.14 22.27-3.07Q18.98 0 13.52 0L13.52 0L2.67 0ZM11.42-8.35Q11.42-8.07 11.70-8.07L11.70-8.07L13.30-8.13Q14.49-8.18 15.28-9.18Q16.08-10.17 16.14-11.82L16.14-11.82L16.14-27.96Q16.14-29.66 15.34-30.68Q14.55-31.71 13.24-31.71L13.24-31.71L11.70-31.71Q11.42-31.71 11.42-31.42L11.42-31.42L11.42-8.35Z" transform="translate(42.955920000000006 56) " fill="#000000" stroke="#000000" stroke-width="0.095" data-glyph-w="27.273600000000002" data-glyph-h="68.184" data-glyph-ascender="56.82" data-glyph-descender="-11.364" data-kerning="0"></path><path d="M15.97-29.77Q17.39-29.77 18.41-29.15L18.41-29.15Q18.81-28.81 18.75-28.30L18.75-28.30L17.44-20.28Q17.39-19.66 16.65-19.83L16.65-19.83Q15.85-20.06 15.23-20.06L15.23-20.06Q14.26-20.06 13.41-19.72L13.41-19.72Q12.39-19.38 11.73-18.30Q11.08-17.22 11.08-15.91L11.08-15.91L11.08-0.74Q11.08-0.45 10.88-0.26Q10.68-0.06 10.40-0.06L10.40-0.06L2.33-0.06Q2.05-0.06 1.85-0.26Q1.65-0.45 1.65-0.74L1.65-0.74L1.65-28.69Q1.65-28.98 1.85-29.18Q2.05-29.38 2.33-29.38L2.33-29.38L10.40-29.38Q10.68-29.38 10.88-29.18Q11.08-28.98 11.08-28.69L11.08-28.69L11.08-26.88Q11.08-26.65 11.17-26.62Q11.25-26.59 11.36-26.76L11.36-26.76Q12.90-29.77 15.97-29.77L15.97-29.77Z" transform="translate(70.22952000000001 56) " fill="#000000" stroke="#000000" stroke-width="0.095" data-glyph-w="19.09152" data-glyph-h="68.184" data-glyph-ascender="56.82" data-glyph-descender="-11.364" data-kerning="0"></path><path d="M24.15-12.78Q24.15-12.50 23.95-12.30Q23.75-12.10 23.47-12.10L23.47-12.10L11.08-12.10Q10.80-12.10 10.80-11.82L10.80-11.82L10.80-10.11Q10.80-8.98 11.34-8.30Q11.88-7.61 12.78-7.61L12.78-7.61Q13.58-7.61 14.09-8.18Q14.60-8.75 14.77-9.60L14.77-9.60Q14.83-10.23 15.51-10.23L15.51-10.23L23.35-9.77Q23.64-9.77 23.84-9.57Q24.03-9.38 23.98-9.03L23.98-9.03Q23.47 0.45 12.78 0.45L12.78 0.45Q7.39 0.45 4.38-2.13Q1.36-4.72 1.36-9.38L1.36-9.38L1.36-20.00Q1.36-24.43 4.40-27.13Q7.44-29.83 12.78-29.83L12.78-29.83Q18.13-29.83 21.14-27.16Q24.15-24.49 24.15-20.00L24.15-20.00L24.15-12.78ZM12.78-21.76Q11.88-21.76 11.34-21.08Q10.80-20.40 10.80-19.26L10.80-19.26L10.80-17.50Q10.80-17.22 11.08-17.22L11.08-17.22L14.43-17.22Q14.72-17.22 14.72-17.50L14.72-17.50L14.72-19.26Q14.72-20.34 14.18-21.05Q13.64-21.76 12.78-21.76L12.78-21.76Z" transform="translate(88.8664808 56) " fill="#000000" stroke="#000000" stroke-width="0.095" data-glyph-w="25.341720000000002" data-glyph-h="68.184" data-glyph-ascender="56.82" data-glyph-descender="-11.364" data-kerning="-0.4545592"></path><path d="M12.95-29.83Q18.18-29.83 21.39-27.22Q24.60-24.60 24.60-20.34L24.60-20.34L24.60-0.68Q24.60-0.40 24.40-0.20Q24.21 0 23.92 0L23.92 0L15.85 0Q15.57 0 15.37-0.20Q15.17-0.40 15.17-0.68L15.17-0.68L15.17-2.05Q15.17-2.22 15.06-2.24Q14.94-2.27 14.83-2.10L14.83-2.10Q12.90 0.45 8.81 0.45L8.81 0.45Q0.97 0.45 0.97-8.47L0.97-8.47Q0.97-12.27 2.39-14.26Q3.81-16.25 6.28-16.90Q8.75-17.56 12.61-17.56L12.61-17.56L14.89-17.56Q15.17-17.56 15.17-17.84L15.17-17.84L15.17-19.21Q15.17-20.34 14.55-21.05Q13.92-21.76 12.95-21.76L12.95-21.76Q12.22-21.76 11.73-21.34Q11.25-20.91 11.08-20.11L11.08-20.11Q11.02-19.43 10.40-19.43L10.40-19.43L2.10-19.49Q1.42-19.49 1.42-20.17L1.42-20.17Q1.70-24.66 4.86-27.25Q8.01-29.83 12.95-29.83L12.95-29.83ZM12.61-6.53Q13.58-6.53 14.38-7.19Q15.17-7.84 15.17-8.86L15.17-8.86L15.17-10.97Q15.17-11.25 14.89-11.25L14.89-11.25L13.18-11.25Q12.05-11.25 11.34-10.57Q10.63-9.89 10.63-8.75L10.63-8.75Q10.63-7.67 11.19-7.10Q11.76-6.53 12.61-6.53L12.61-6.53Z" transform="translate(113.81046150000002 56) " fill="#000000" stroke="#000000" stroke-width="0.095" data-glyph-w="25.96674" data-glyph-h="68.184" data-glyph-ascender="56.82" data-glyph-descender="-11.364" data-kerning="-0.39773929999999996"></path><path d="M29.55-29.83Q33.58-29.83 35.51-27.22Q37.44-24.60 37.44-19.77L37.44-19.77L37.44-0.68Q37.44-0.40 37.25-0.20Q37.05 0 36.76 0L36.76 0L28.69 0Q28.41 0 28.21-0.20Q28.01-0.40 28.01-0.68L28.01-0.68L28.01-19.09Q28.01-20.34 27.53-21.05Q27.05-21.76 26.19-21.76L26.19-21.76Q25.28-21.76 24.77-21.08Q24.26-20.40 24.26-19.15L24.26-19.15L24.26-0.68Q24.26-0.40 24.06-0.20Q23.86 0 23.58 0L23.58 0L15.51 0Q15.23 0 15.03-0.20Q14.83-0.40 14.83-0.68L14.83-0.68L14.83-19.09Q14.83-20.34 14.35-21.05Q13.86-21.76 13.01-21.76L13.01-21.76Q12.10-21.76 11.59-21.08Q11.08-20.40 11.08-19.15L11.08-19.15L11.08-0.68Q11.08-0.40 10.88-0.20Q10.68 0 10.40 0L10.40 0L2.33 0Q2.05 0 1.85-0.20Q1.65-0.40 1.65-0.68L1.65-0.68L1.65-28.69Q1.65-28.98 1.85-29.18Q2.05-29.38 2.33-29.38L2.33-29.38L10.40-29.38Q10.68-29.38 10.88-29.18Q11.08-28.98 11.08-28.69L11.08-28.69L11.08-28.13Q11.08-27.96 11.19-27.90Q11.31-27.84 11.42-27.96L11.42-27.96Q13.41-29.83 16.36-29.83L16.36-29.83Q20.85-29.83 22.78-26.48L22.78-26.48L22.90-26.42Q23.13-26.42 23.35-26.76L23.35-26.76Q25.46-29.83 29.55-29.83L29.55-29.83Z" transform="translate(139.77720150000002 56) " fill="#000000" stroke="#000000" stroke-width="0.095" data-glyph-w="38.9217" data-glyph-h="68.184" data-glyph-ascender="56.82" data-glyph-descender="-11.364" data-kerning="0"></path></g></svg>
                </g>
              </g>
              <g id="shape_b7JzUP3bhD" ref="shape_b7JzUP3bhD" key="shape_b7JzUP3bhD" mask="">
                <g transform="translate(212.93918164435945,306.0175755258126) rotate(0,187.06081835564055,149.20230975143403) scale(1,1)" style="opacity: 1;mix-blend-mode: undefined;" filter="">
                  <!--普通元素-->
                  <svg xmlns="http://www.w3.org/2000/svg" version="1.1" xmlns:xlink="http://www.w3.org/1999/xlink" width="374.12163671128104" height="298.40461950286806" viewBox="0 0 271.7578 216.7578" data-ligature="true" data-parent="shape_b7JzUP3bhD"><g data-role="text" data-width="90.39" data-height="36" transform="translate(90.6839, 90.3789)"><path d="M19.83-13.83L19.83-20.42L24.42-20.42L24.42-13.83L19.83-13.83ZM7.24-5.59L22.89-5.59L22.89-8.12L7.24-8.12L7.24-5.59ZM22.89-3.50L7.24-3.50L7.24-0.71L22.89-0.71L22.89-3.50ZM28.01-22.51L16.24-22.51L16.24-11.74L28.01-11.74L28.01-22.51ZM9.42-14.04L9.42-14.04Q9.03-13.39 8.53-12.86L8.53-12.86Q7.09-11.30 4.50-10.24L4.50-10.24L12.77-10.24Q11.18-12.12 9.42-14.04ZM6.33-15.62L6.33-15.62L1.29-15.62L1.29-17.71L2.59-17.71L1.29-18.80Q2.91-21.30 4.06-24.36L4.06-24.36L7.62-23.54Q7.41-22.89 7.12-22.30L7.12-22.30L14.89-22.30L14.89-20.21L10.95-20.21Q10.92-18.89 10.74-17.71L10.74-17.71L15.54-17.71L15.54-15.62L11.06-15.62Q13.62-14.24 15.62-12.48L15.62-12.48L13.36-10.24L26.51-10.24L26.51 1.38L3.65 1.38L3.65-9.92Q2.85-9.65 1.97-9.42L1.97-9.42L0.82-11.06Q4.06-12.48 5.56-14.39L5.56-14.39Q6.00-14.98 6.33-15.62ZM3.12-17.71L3.12-17.71L7.06-17.71Q7.33-18.86 7.36-20.21L7.36-20.21L5.83-20.21Q4.71-18.83 3.12-17.71Z" transform="translate(0 29) " fill="#000000" stroke="#000000" stroke-width="0.05" data-glyph-w="30.13" data-glyph-h="29.423828125" data-glyph-ascender="25.892968749999998" data-glyph-descender="-3.530859375" data-kerning="0"></path><path d="M6.59-11.53L6.59-15.09Q4.41-12.98 2.03-11.65L2.03-11.65L0.82-13.24Q3.44-15.65 5.59-19.10L5.59-19.10L1.50-19.10L1.50-21.19L6.59-21.19L6.59-24.04L10.21-24.04L10.21-21.19L14.18-21.19L14.18-19.10L10.21-19.10L10.21-17.89L10.77-18.45Q12.86-17.30 14.59-15.71L14.59-15.71L11.86-13.06Q11.15-14.24 10.21-15.74L10.21-15.74L10.21-12.68L13.30-11.92Q13.09-11.50 12.62-10.86L12.62-10.86L25.66-10.86L25.66-8.77Q23.24-4.38 17.86-1.38L17.86-1.38Q12.03 1.88 4.18 2.62L4.18 2.62L3.56 0.88Q8.86-0.26 12.51-1.91L12.51-1.91Q10.86-3.59 9.09-5.24L9.09-5.24L10.50-6.83Q13.53-5.56 15.80-3.71L15.80-3.71Q18.89-5.71 21.39-8.77L21.39-8.77L10.95-8.77Q7.41-4.85 2.71-3.03L2.71-3.03L1.59-4.59Q5.47-7.27 8.74-11.53L8.74-11.53L6.59-11.53ZM29.31-14.86L27.54-11.80Q24.98-13.33 23.04-16.36L23.04-16.36L23.04-11.53L19.45-11.53L19.45-15.30Q17.18-13.03 14.65-11.65L14.65-11.65L13.48-13.24Q16.18-15.68 18.27-19.10L18.27-19.10L15.06-19.10L15.06-21.19L19.45-21.19L19.45-24.04L23.04-24.04L23.04-21.19L28.63-21.19L28.63-19.10L24.10-19.10Q26.66-16.24 29.31-14.86L29.31-14.86Z" transform="translate(30.13 29) " fill="#000000" stroke="#000000" stroke-width="0.05" data-glyph-w="30.13" data-glyph-h="29.423828125" data-glyph-ascender="25.892968749999998" data-glyph-descender="-3.530859375" data-kerning="0"></path><path d="M10.71-17.74L7.94-17.74L7.94-24.04L4.35-24.04L4.35-17.74L1.29-17.74L1.29-15.62L4.35-15.62L4.35-2.94Q2.59-2.56 0.82-2.24L0.82-2.24L1.85 1.12Q7.03 0.06 11.80-2.65L11.80-2.65L11.06-4.50Q9.50-4.09 7.94-3.74L7.94-3.74L7.94-15.62L11.03-15.62L11.03-17.62L13.74-17.62L13.74-12.30Q13.74-6.53 11.74-2.15L11.74-2.15Q10.74 0.06 9.74 1.12L9.74 1.12L11.09 2.62Q12.65 1.82 14.21-0.41L14.21-0.41Q17.12-4.56 17.33-11.12L17.33-11.12L24.22-11.12L24.22-0.38Q24.22 0.24 23.63 0.24L23.63 0.24L18.27 0.24L18.63 2.32L25.72 2.32Q26.57 2.32 27.19 1.71L27.19 1.71Q27.81 1.09 27.81 0.24L27.81 0.24L27.81-13.21L17.33-13.21L17.33-17.62L28.86-17.62L28.86-19.74L20.30-19.74L22.57-20.74Q21.24-22.98 19.04-24.36L19.04-24.36L17.24-23.36Q18.30-21.39 18.95-19.74L18.95-19.74L10.71-19.74L10.71-17.74Z" transform="translate(60.26 29) " fill="#000000" stroke="#000000" stroke-width="0.05" data-glyph-w="30.13" data-glyph-h="29.423828125" data-glyph-ascender="25.892968749999998" data-glyph-descender="-3.530859375" data-kerning="0"></path></g></svg>
                </g>
              </g>
    </svg>